<mxfile host="app.diagrams.net" modified="2023-11-20T21:34:54.732Z" agent="Mozilla/5.0 (Windows NT 10.0; Win64; x64) AppleWebKit/537.36 (KHTML, like Gecko) Chrome/119.0.0.0 Safari/537.36" etag="h8rDZASkNLH0GfeYMFZo" version="22.1.3" type="device">
  <diagram name="use cases" id="QTrtBevLNwhekKJyJ6QH">
    <mxGraphModel dx="1800" dy="1232" grid="1" gridSize="10" guides="1" tooltips="1" connect="1" arrows="1" fold="1" page="0" pageScale="1" pageWidth="827" pageHeight="1169" math="0" shadow="0">
      <root>
        <mxCell id="0" />
        <mxCell id="1" parent="0" />
        <mxCell id="OVoehKr8wcMutG9QnmQF-1" value="Student" style="shape=umlActor;verticalLabelPosition=bottom;verticalAlign=top;html=1;outlineConnect=0;fontSize=16;" vertex="1" parent="1">
          <mxGeometry x="-299" y="-90" width="38" height="70" as="geometry" />
        </mxCell>
        <mxCell id="OVoehKr8wcMutG9QnmQF-2" value="Educator" style="shape=umlActor;verticalLabelPosition=bottom;verticalAlign=top;html=1;outlineConnect=0;fontSize=16;" vertex="1" parent="1">
          <mxGeometry x="-299" y="383" width="40" height="70" as="geometry" />
        </mxCell>
        <mxCell id="OVoehKr8wcMutG9QnmQF-6" value="User registration" style="ellipse;whiteSpace=wrap;html=1;fontSize=16;" vertex="1" parent="1">
          <mxGeometry x="-357" y="160" width="154" height="80" as="geometry" />
        </mxCell>
        <mxCell id="OVoehKr8wcMutG9QnmQF-7" value="User log in" style="ellipse;whiteSpace=wrap;html=1;fontSize=16;" vertex="1" parent="1">
          <mxGeometry x="400" y="200" width="154" height="80" as="geometry" />
        </mxCell>
        <mxCell id="OVoehKr8wcMutG9QnmQF-8" value="Create tournament" style="ellipse;whiteSpace=wrap;html=1;fontSize=16;" vertex="1" parent="1">
          <mxGeometry x="1" y="230" width="160" height="80" as="geometry" />
        </mxCell>
        <mxCell id="OVoehKr8wcMutG9QnmQF-9" value="Create battle" style="ellipse;whiteSpace=wrap;html=1;fontSize=16;" vertex="1" parent="1">
          <mxGeometry x="1" y="354" width="160" height="80" as="geometry" />
        </mxCell>
        <mxCell id="OVoehKr8wcMutG9QnmQF-23" value="p" style="edgeStyle=none;curved=1;rounded=0;orthogonalLoop=1;jettySize=auto;html=1;exitX=0;exitY=0.5;exitDx=0;exitDy=0;fontSize=12;startSize=8;endSize=8;startArrow=classic;startFill=1;endArrow=none;endFill=0;" edge="1" parent="1" source="OVoehKr8wcMutG9QnmQF-10" target="OVoehKr8wcMutG9QnmQF-2">
          <mxGeometry relative="1" as="geometry">
            <mxPoint x="-39" y="553" as="targetPoint" />
          </mxGeometry>
        </mxCell>
        <mxCell id="OVoehKr8wcMutG9QnmQF-40" value="participate" style="edgeLabel;html=1;align=center;verticalAlign=middle;resizable=0;points=[];fontSize=16;" vertex="1" connectable="0" parent="OVoehKr8wcMutG9QnmQF-23">
          <mxGeometry x="-0.0818" y="-2" relative="1" as="geometry">
            <mxPoint as="offset" />
          </mxGeometry>
        </mxCell>
        <mxCell id="OVoehKr8wcMutG9QnmQF-10" value="Perform manual evaluation" style="ellipse;whiteSpace=wrap;html=1;fontSize=16;" vertex="1" parent="1">
          <mxGeometry x="1" y="510" width="160" height="80" as="geometry" />
        </mxCell>
        <mxCell id="OVoehKr8wcMutG9QnmQF-11" value="Subscribe to a tournament" style="ellipse;whiteSpace=wrap;html=1;fontSize=16;" vertex="1" parent="1">
          <mxGeometry y="-270" width="160" height="80" as="geometry" />
        </mxCell>
        <mxCell id="OVoehKr8wcMutG9QnmQF-12" value="Enroll in a battle" style="ellipse;whiteSpace=wrap;html=1;fontSize=16;" vertex="1" parent="1">
          <mxGeometry y="-95" width="160" height="80" as="geometry" />
        </mxCell>
        <mxCell id="OVoehKr8wcMutG9QnmQF-13" value="Form a team" style="ellipse;whiteSpace=wrap;html=1;fontSize=16;" vertex="1" parent="1">
          <mxGeometry x="1" y="80" width="160" height="80" as="geometry" />
        </mxCell>
        <mxCell id="OVoehKr8wcMutG9QnmQF-14" value="Create badge" style="ellipse;whiteSpace=wrap;html=1;fontSize=16;" vertex="1" parent="1">
          <mxGeometry x="-2" y="631" width="160" height="80" as="geometry" />
        </mxCell>
        <mxCell id="OVoehKr8wcMutG9QnmQF-16" style="edgeStyle=none;curved=1;rounded=0;orthogonalLoop=1;jettySize=auto;html=1;exitX=0.5;exitY=0;exitDx=0;exitDy=0;fontSize=12;startSize=8;endSize=8;" edge="1" parent="1" source="OVoehKr8wcMutG9QnmQF-6" target="OVoehKr8wcMutG9QnmQF-6">
          <mxGeometry relative="1" as="geometry" />
        </mxCell>
        <mxCell id="OVoehKr8wcMutG9QnmQF-24" style="edgeStyle=none;curved=1;rounded=0;orthogonalLoop=1;jettySize=auto;html=1;exitX=0;exitY=0.5;exitDx=0;exitDy=0;fontSize=12;startSize=8;endSize=8;startArrow=classic;startFill=1;endArrow=none;endFill=0;" edge="1" parent="1" source="OVoehKr8wcMutG9QnmQF-9" target="OVoehKr8wcMutG9QnmQF-2">
          <mxGeometry relative="1" as="geometry">
            <mxPoint x="-39" y="433" as="targetPoint" />
            <mxPoint x="51" y="563" as="sourcePoint" />
          </mxGeometry>
        </mxCell>
        <mxCell id="OVoehKr8wcMutG9QnmQF-41" value="initiate" style="edgeLabel;html=1;align=center;verticalAlign=middle;resizable=0;points=[];fontSize=16;" vertex="1" connectable="0" parent="OVoehKr8wcMutG9QnmQF-24">
          <mxGeometry x="0.0098" y="-2" relative="1" as="geometry">
            <mxPoint as="offset" />
          </mxGeometry>
        </mxCell>
        <mxCell id="OVoehKr8wcMutG9QnmQF-25" style="edgeStyle=none;curved=1;rounded=0;orthogonalLoop=1;jettySize=auto;html=1;exitX=0;exitY=0.5;exitDx=0;exitDy=0;fontSize=12;startSize=8;endSize=8;startArrow=classic;startFill=1;endArrow=none;endFill=0;" edge="1" parent="1" source="OVoehKr8wcMutG9QnmQF-8" target="OVoehKr8wcMutG9QnmQF-2">
          <mxGeometry relative="1" as="geometry">
            <mxPoint x="-39" y="313" as="targetPoint" />
            <mxPoint x="51" y="443" as="sourcePoint" />
          </mxGeometry>
        </mxCell>
        <mxCell id="OVoehKr8wcMutG9QnmQF-42" value="initiate" style="edgeLabel;html=1;align=center;verticalAlign=middle;resizable=0;points=[];fontSize=16;" vertex="1" connectable="0" parent="OVoehKr8wcMutG9QnmQF-25">
          <mxGeometry x="0.0037" relative="1" as="geometry">
            <mxPoint as="offset" />
          </mxGeometry>
        </mxCell>
        <mxCell id="OVoehKr8wcMutG9QnmQF-34" value="GitHub API" style="shape=umlActor;verticalLabelPosition=bottom;verticalAlign=top;html=1;outlineConnect=0;fontSize=16;" vertex="1" parent="1">
          <mxGeometry x="-299" y="845" width="38" height="70" as="geometry" />
        </mxCell>
        <mxCell id="OVoehKr8wcMutG9QnmQF-35" value="Automatic evaluation" style="ellipse;whiteSpace=wrap;html=1;fontSize=16;" vertex="1" parent="1">
          <mxGeometry x="-99" y="840" width="160" height="80" as="geometry" />
        </mxCell>
        <mxCell id="OVoehKr8wcMutG9QnmQF-39" style="edgeStyle=none;curved=1;rounded=0;orthogonalLoop=1;jettySize=auto;html=1;exitX=0;exitY=0.5;exitDx=0;exitDy=0;fontSize=12;startSize=8;endSize=8;startArrow=classic;startFill=1;endArrow=none;endFill=0;" edge="1" parent="1" source="OVoehKr8wcMutG9QnmQF-14" target="OVoehKr8wcMutG9QnmQF-2">
          <mxGeometry relative="1" as="geometry">
            <mxPoint x="-259" y="533" as="targetPoint" />
            <mxPoint x="41" y="660" as="sourcePoint" />
          </mxGeometry>
        </mxCell>
        <mxCell id="OVoehKr8wcMutG9QnmQF-43" value="initiate" style="edgeLabel;html=1;align=center;verticalAlign=middle;resizable=0;points=[];fontSize=16;" vertex="1" connectable="0" parent="OVoehKr8wcMutG9QnmQF-39">
          <mxGeometry x="-0.0335" y="-1" relative="1" as="geometry">
            <mxPoint as="offset" />
          </mxGeometry>
        </mxCell>
        <mxCell id="OVoehKr8wcMutG9QnmQF-45" style="edgeStyle=none;curved=1;rounded=0;orthogonalLoop=1;jettySize=auto;html=1;fontSize=12;startSize=8;endSize=8;startArrow=classic;startFill=1;endArrow=none;endFill=0;" edge="1" parent="1" source="OVoehKr8wcMutG9QnmQF-35" target="OVoehKr8wcMutG9QnmQF-34">
          <mxGeometry relative="1" as="geometry">
            <mxPoint x="-179" y="1001" as="targetPoint" />
            <mxPoint x="-49" y="651" as="sourcePoint" />
          </mxGeometry>
        </mxCell>
        <mxCell id="OVoehKr8wcMutG9QnmQF-46" value="triggers" style="edgeLabel;html=1;align=center;verticalAlign=middle;resizable=0;points=[];fontSize=16;" vertex="1" connectable="0" parent="OVoehKr8wcMutG9QnmQF-45">
          <mxGeometry x="-0.0818" y="-2" relative="1" as="geometry">
            <mxPoint as="offset" />
          </mxGeometry>
        </mxCell>
        <mxCell id="OVoehKr8wcMutG9QnmQF-48" style="edgeStyle=none;curved=1;rounded=0;orthogonalLoop=1;jettySize=auto;html=1;exitX=0;exitY=0.5;exitDx=0;exitDy=0;fontSize=12;startSize=8;endSize=8;startArrow=classic;startFill=1;endArrow=none;endFill=0;" edge="1" parent="1" source="OVoehKr8wcMutG9QnmQF-11" target="OVoehKr8wcMutG9QnmQF-1">
          <mxGeometry relative="1" as="geometry">
            <mxPoint x="-100" y="-40" as="targetPoint" />
            <mxPoint x="50" y="250" as="sourcePoint" />
          </mxGeometry>
        </mxCell>
        <mxCell id="OVoehKr8wcMutG9QnmQF-49" value="initiate" style="edgeLabel;html=1;align=center;verticalAlign=middle;resizable=0;points=[];fontSize=16;" vertex="1" connectable="0" parent="OVoehKr8wcMutG9QnmQF-48">
          <mxGeometry x="0.0037" relative="1" as="geometry">
            <mxPoint as="offset" />
          </mxGeometry>
        </mxCell>
        <mxCell id="OVoehKr8wcMutG9QnmQF-50" style="edgeStyle=none;curved=1;rounded=0;orthogonalLoop=1;jettySize=auto;html=1;exitX=0;exitY=0.5;exitDx=0;exitDy=0;fontSize=12;startSize=8;endSize=8;startArrow=classic;startFill=1;endArrow=none;endFill=0;" edge="1" parent="1" source="OVoehKr8wcMutG9QnmQF-12" target="OVoehKr8wcMutG9QnmQF-1">
          <mxGeometry relative="1" as="geometry">
            <mxPoint x="-102" y="-17" as="targetPoint" />
            <mxPoint x="10" y="-150" as="sourcePoint" />
          </mxGeometry>
        </mxCell>
        <mxCell id="OVoehKr8wcMutG9QnmQF-51" value="initiate" style="edgeLabel;html=1;align=center;verticalAlign=middle;resizable=0;points=[];fontSize=16;" vertex="1" connectable="0" parent="OVoehKr8wcMutG9QnmQF-50">
          <mxGeometry x="0.0037" relative="1" as="geometry">
            <mxPoint as="offset" />
          </mxGeometry>
        </mxCell>
        <mxCell id="OVoehKr8wcMutG9QnmQF-52" style="edgeStyle=none;curved=1;rounded=0;orthogonalLoop=1;jettySize=auto;html=1;exitX=0;exitY=0.5;exitDx=0;exitDy=0;fontSize=12;startSize=8;endSize=8;startArrow=classic;startFill=1;endArrow=none;endFill=0;" edge="1" parent="1" source="OVoehKr8wcMutG9QnmQF-13" target="OVoehKr8wcMutG9QnmQF-1">
          <mxGeometry relative="1" as="geometry">
            <mxPoint x="-92" y="-7" as="targetPoint" />
            <mxPoint x="20" y="-140" as="sourcePoint" />
          </mxGeometry>
        </mxCell>
        <mxCell id="OVoehKr8wcMutG9QnmQF-53" value="initiate" style="edgeLabel;html=1;align=center;verticalAlign=middle;resizable=0;points=[];fontSize=16;" vertex="1" connectable="0" parent="OVoehKr8wcMutG9QnmQF-52">
          <mxGeometry x="0.0037" relative="1" as="geometry">
            <mxPoint as="offset" />
          </mxGeometry>
        </mxCell>
        <mxCell id="OVoehKr8wcMutG9QnmQF-70" style="edgeStyle=none;curved=1;rounded=0;orthogonalLoop=1;jettySize=auto;html=1;exitX=1;exitY=0.5;exitDx=0;exitDy=0;fontSize=12;startSize=8;endSize=8;dashed=1;entryX=0.5;entryY=0;entryDx=0;entryDy=0;" edge="1" parent="1" source="OVoehKr8wcMutG9QnmQF-11" target="OVoehKr8wcMutG9QnmQF-7">
          <mxGeometry relative="1" as="geometry">
            <mxPoint x="664" y="250" as="sourcePoint" />
            <mxPoint x="770" y="250" as="targetPoint" />
          </mxGeometry>
        </mxCell>
        <mxCell id="OVoehKr8wcMutG9QnmQF-71" value="include" style="edgeLabel;html=1;align=center;verticalAlign=middle;resizable=0;points=[];fontSize=16;" vertex="1" connectable="0" parent="OVoehKr8wcMutG9QnmQF-70">
          <mxGeometry x="0.3091" y="2" relative="1" as="geometry">
            <mxPoint as="offset" />
          </mxGeometry>
        </mxCell>
        <mxCell id="OVoehKr8wcMutG9QnmQF-72" style="edgeStyle=none;curved=1;rounded=0;orthogonalLoop=1;jettySize=auto;html=1;exitX=1;exitY=0.5;exitDx=0;exitDy=0;fontSize=12;startSize=8;endSize=8;dashed=1;entryX=0.367;entryY=0.026;entryDx=0;entryDy=0;entryPerimeter=0;" edge="1" parent="1" source="OVoehKr8wcMutG9QnmQF-12" target="OVoehKr8wcMutG9QnmQF-7">
          <mxGeometry relative="1" as="geometry">
            <mxPoint x="170" y="-150" as="sourcePoint" />
            <mxPoint x="510" y="250" as="targetPoint" />
          </mxGeometry>
        </mxCell>
        <mxCell id="OVoehKr8wcMutG9QnmQF-73" value="include" style="edgeLabel;html=1;align=center;verticalAlign=middle;resizable=0;points=[];fontSize=16;" vertex="1" connectable="0" parent="OVoehKr8wcMutG9QnmQF-72">
          <mxGeometry x="0.3091" y="2" relative="1" as="geometry">
            <mxPoint as="offset" />
          </mxGeometry>
        </mxCell>
        <mxCell id="OVoehKr8wcMutG9QnmQF-74" style="edgeStyle=none;curved=1;rounded=0;orthogonalLoop=1;jettySize=auto;html=1;exitX=1;exitY=0.5;exitDx=0;exitDy=0;fontSize=12;startSize=8;endSize=8;dashed=1;entryX=0;entryY=0;entryDx=0;entryDy=0;" edge="1" parent="1" source="OVoehKr8wcMutG9QnmQF-13" target="OVoehKr8wcMutG9QnmQF-7">
          <mxGeometry relative="1" as="geometry">
            <mxPoint x="180" y="-140" as="sourcePoint" />
            <mxPoint x="520" y="260" as="targetPoint" />
          </mxGeometry>
        </mxCell>
        <mxCell id="OVoehKr8wcMutG9QnmQF-75" value="include" style="edgeLabel;html=1;align=center;verticalAlign=middle;resizable=0;points=[];fontSize=16;" vertex="1" connectable="0" parent="OVoehKr8wcMutG9QnmQF-74">
          <mxGeometry x="0.3091" y="2" relative="1" as="geometry">
            <mxPoint as="offset" />
          </mxGeometry>
        </mxCell>
        <mxCell id="OVoehKr8wcMutG9QnmQF-76" style="edgeStyle=none;curved=1;rounded=0;orthogonalLoop=1;jettySize=auto;html=1;exitX=0.5;exitY=0;exitDx=0;exitDy=0;fontSize=12;startSize=8;endSize=8;dashed=1;entryX=0.5;entryY=1;entryDx=0;entryDy=0;" edge="1" parent="1" source="OVoehKr8wcMutG9QnmQF-12" target="OVoehKr8wcMutG9QnmQF-11">
          <mxGeometry relative="1" as="geometry">
            <mxPoint x="190" y="-130" as="sourcePoint" />
            <mxPoint x="130" y="-120" as="targetPoint" />
          </mxGeometry>
        </mxCell>
        <mxCell id="OVoehKr8wcMutG9QnmQF-77" value="include" style="edgeLabel;html=1;align=center;verticalAlign=middle;resizable=0;points=[];fontSize=16;" vertex="1" connectable="0" parent="OVoehKr8wcMutG9QnmQF-76">
          <mxGeometry x="0.3091" y="2" relative="1" as="geometry">
            <mxPoint y="13" as="offset" />
          </mxGeometry>
        </mxCell>
        <mxCell id="OVoehKr8wcMutG9QnmQF-78" style="edgeStyle=none;curved=1;rounded=0;orthogonalLoop=1;jettySize=auto;html=1;exitX=0.5;exitY=0;exitDx=0;exitDy=0;fontSize=12;startSize=8;endSize=8;dashed=1;entryX=0.5;entryY=1;entryDx=0;entryDy=0;" edge="1" parent="1" source="OVoehKr8wcMutG9QnmQF-13" target="OVoehKr8wcMutG9QnmQF-12">
          <mxGeometry relative="1" as="geometry">
            <mxPoint x="200" y="-120" as="sourcePoint" />
            <mxPoint x="540" y="280" as="targetPoint" />
          </mxGeometry>
        </mxCell>
        <mxCell id="OVoehKr8wcMutG9QnmQF-79" value="include" style="edgeLabel;html=1;align=center;verticalAlign=middle;resizable=0;points=[];fontSize=16;" vertex="1" connectable="0" parent="OVoehKr8wcMutG9QnmQF-78">
          <mxGeometry x="0.3091" y="2" relative="1" as="geometry">
            <mxPoint as="offset" />
          </mxGeometry>
        </mxCell>
        <mxCell id="OVoehKr8wcMutG9QnmQF-83" style="edgeStyle=none;curved=1;rounded=0;orthogonalLoop=1;jettySize=auto;html=1;fontSize=12;startSize=8;endSize=8;dashed=1;entryX=0.5;entryY=1;entryDx=0;entryDy=0;" edge="1" parent="1" source="OVoehKr8wcMutG9QnmQF-10" target="OVoehKr8wcMutG9QnmQF-9">
          <mxGeometry relative="1" as="geometry">
            <mxPoint x="250" y="310" as="sourcePoint" />
            <mxPoint x="560" y="240" as="targetPoint" />
          </mxGeometry>
        </mxCell>
        <mxCell id="OVoehKr8wcMutG9QnmQF-84" value="include" style="edgeLabel;html=1;align=center;verticalAlign=middle;resizable=0;points=[];fontSize=16;" vertex="1" connectable="0" parent="OVoehKr8wcMutG9QnmQF-83">
          <mxGeometry x="0.3091" y="2" relative="1" as="geometry">
            <mxPoint y="14" as="offset" />
          </mxGeometry>
        </mxCell>
        <mxCell id="OVoehKr8wcMutG9QnmQF-85" style="edgeStyle=none;curved=1;rounded=0;orthogonalLoop=1;jettySize=auto;html=1;exitX=1;exitY=0.5;exitDx=0;exitDy=0;fontSize=12;startSize=8;endSize=8;dashed=1;entryX=0;entryY=0.5;entryDx=0;entryDy=0;" edge="1" parent="1" source="OVoehKr8wcMutG9QnmQF-8" target="OVoehKr8wcMutG9QnmQF-7">
          <mxGeometry relative="1" as="geometry">
            <mxPoint x="171" y="130" as="sourcePoint" />
            <mxPoint x="510" y="250" as="targetPoint" />
          </mxGeometry>
        </mxCell>
        <mxCell id="OVoehKr8wcMutG9QnmQF-86" value="include" style="edgeLabel;html=1;align=center;verticalAlign=middle;resizable=0;points=[];fontSize=16;" vertex="1" connectable="0" parent="OVoehKr8wcMutG9QnmQF-85">
          <mxGeometry x="0.3091" y="2" relative="1" as="geometry">
            <mxPoint as="offset" />
          </mxGeometry>
        </mxCell>
        <mxCell id="OVoehKr8wcMutG9QnmQF-87" style="edgeStyle=none;curved=1;rounded=0;orthogonalLoop=1;jettySize=auto;html=1;exitX=1;exitY=0.5;exitDx=0;exitDy=0;fontSize=12;startSize=8;endSize=8;dashed=1;entryX=0;entryY=1;entryDx=0;entryDy=0;" edge="1" parent="1" source="OVoehKr8wcMutG9QnmQF-9" target="OVoehKr8wcMutG9QnmQF-7">
          <mxGeometry relative="1" as="geometry">
            <mxPoint x="171" y="280" as="sourcePoint" />
            <mxPoint x="510" y="250" as="targetPoint" />
          </mxGeometry>
        </mxCell>
        <mxCell id="OVoehKr8wcMutG9QnmQF-88" value="include" style="edgeLabel;html=1;align=center;verticalAlign=middle;resizable=0;points=[];fontSize=16;" vertex="1" connectable="0" parent="OVoehKr8wcMutG9QnmQF-87">
          <mxGeometry x="0.3091" y="2" relative="1" as="geometry">
            <mxPoint as="offset" />
          </mxGeometry>
        </mxCell>
        <mxCell id="OVoehKr8wcMutG9QnmQF-89" style="edgeStyle=none;curved=1;rounded=0;orthogonalLoop=1;jettySize=auto;html=1;exitX=1;exitY=0.5;exitDx=0;exitDy=0;fontSize=12;startSize=8;endSize=8;dashed=1;entryX=0.5;entryY=1;entryDx=0;entryDy=0;" edge="1" parent="1" source="OVoehKr8wcMutG9QnmQF-10" target="OVoehKr8wcMutG9QnmQF-7">
          <mxGeometry relative="1" as="geometry">
            <mxPoint x="181" y="290" as="sourcePoint" />
            <mxPoint x="520" y="260" as="targetPoint" />
          </mxGeometry>
        </mxCell>
        <mxCell id="OVoehKr8wcMutG9QnmQF-90" value="include" style="edgeLabel;html=1;align=center;verticalAlign=middle;resizable=0;points=[];fontSize=16;" vertex="1" connectable="0" parent="OVoehKr8wcMutG9QnmQF-89">
          <mxGeometry x="0.3091" y="2" relative="1" as="geometry">
            <mxPoint as="offset" />
          </mxGeometry>
        </mxCell>
        <mxCell id="OVoehKr8wcMutG9QnmQF-91" style="edgeStyle=none;curved=1;rounded=0;orthogonalLoop=1;jettySize=auto;html=1;exitX=1;exitY=0.5;exitDx=0;exitDy=0;fontSize=12;startSize=8;endSize=8;dashed=1;entryX=1;entryY=1;entryDx=0;entryDy=0;" edge="1" parent="1" source="OVoehKr8wcMutG9QnmQF-14" target="OVoehKr8wcMutG9QnmQF-7">
          <mxGeometry relative="1" as="geometry">
            <mxPoint x="191" y="300" as="sourcePoint" />
            <mxPoint x="530" y="270" as="targetPoint" />
          </mxGeometry>
        </mxCell>
        <mxCell id="OVoehKr8wcMutG9QnmQF-92" value="include" style="edgeLabel;html=1;align=center;verticalAlign=middle;resizable=0;points=[];fontSize=16;" vertex="1" connectable="0" parent="OVoehKr8wcMutG9QnmQF-91">
          <mxGeometry x="0.3091" y="2" relative="1" as="geometry">
            <mxPoint as="offset" />
          </mxGeometry>
        </mxCell>
        <mxCell id="OVoehKr8wcMutG9QnmQF-94" style="edgeStyle=none;curved=1;rounded=0;orthogonalLoop=1;jettySize=auto;html=1;exitX=0.5;exitY=1;exitDx=0;exitDy=0;fontSize=12;startSize=8;endSize=8;startArrow=classic;startFill=1;endArrow=none;endFill=0;" edge="1" parent="1" source="OVoehKr8wcMutG9QnmQF-6">
          <mxGeometry relative="1" as="geometry">
            <mxPoint x="-280" y="370" as="targetPoint" />
            <mxPoint x="11" y="280" as="sourcePoint" />
          </mxGeometry>
        </mxCell>
        <mxCell id="OVoehKr8wcMutG9QnmQF-95" value="initiate" style="edgeLabel;html=1;align=center;verticalAlign=middle;resizable=0;points=[];fontSize=16;" vertex="1" connectable="0" parent="OVoehKr8wcMutG9QnmQF-94">
          <mxGeometry x="0.0037" relative="1" as="geometry">
            <mxPoint as="offset" />
          </mxGeometry>
        </mxCell>
        <mxCell id="OVoehKr8wcMutG9QnmQF-96" style="edgeStyle=none;curved=1;rounded=0;orthogonalLoop=1;jettySize=auto;html=1;exitX=0.5;exitY=0;exitDx=0;exitDy=0;fontSize=12;startSize=8;endSize=8;startArrow=classic;startFill=1;endArrow=none;endFill=0;" edge="1" parent="1" source="OVoehKr8wcMutG9QnmQF-6">
          <mxGeometry relative="1" as="geometry">
            <mxPoint x="-280" y="10" as="targetPoint" />
            <mxPoint x="21" y="290" as="sourcePoint" />
          </mxGeometry>
        </mxCell>
        <mxCell id="OVoehKr8wcMutG9QnmQF-97" value="initiate" style="edgeLabel;html=1;align=center;verticalAlign=middle;resizable=0;points=[];fontSize=16;" vertex="1" connectable="0" parent="OVoehKr8wcMutG9QnmQF-96">
          <mxGeometry x="0.0037" relative="1" as="geometry">
            <mxPoint as="offset" />
          </mxGeometry>
        </mxCell>
      </root>
    </mxGraphModel>
  </diagram>
</mxfile>
